<svg xmlns="http://www.w3.org/2000/svg" xmlns:xlink="http://www.w3.org/1999/xlink" width="1133" zoomAndPan="magnify" viewBox="0 0 849.75 525.000007" height="700" preserveAspectRatio="xMidYMid meet" version="1.0"><defs><g/><clipPath id="f9ff01e098"><path d="M 54.085938 131 L 370 131 L 370 288 L 54.085938 288 Z M 54.085938 131 " clip-rule="nonzero"/></clipPath><clipPath id="81d23f6dc4"><path d="M 537 85 L 794.425781 85 L 794.425781 105 L 537 105 Z M 537 85 " clip-rule="nonzero"/></clipPath></defs><g fill="#1a1a1a" fill-opacity="1"><g transform="translate(37.726444, 440.598029)"><g><path d="M 12.71875 -118.234375 L 108.265625 -118.234375 L 108.265625 -89.875 L 50.703125 -89.875 L 50.703125 -69.609375 L 100.1875 -69.609375 L 100.1875 -42.453125 L 50.703125 -42.453125 L 50.703125 0 L 12.71875 0 Z M 12.71875 -118.234375 "/></g></g></g><g fill="#1a1a1a" fill-opacity="1"><g transform="translate(152.354506, 440.598029)"><g><path d="M 14.4375 0 L 14.4375 -118.234375 L 52.421875 -118.234375 L 52.421875 0 Z M 14.4375 0 "/></g></g></g><g fill="#1a1a1a" fill-opacity="1"><g transform="translate(219.206552, 440.598029)"><g><path d="M 133.703125 0 L 87.640625 0 L 65.828125 -36.78125 L 65.140625 -36.78125 L 43.3125 0 L 0.6875 0 L 42.96875 -62.5625 L 4.8125 -118.234375 L 50.703125 -118.234375 L 68.578125 -87.984375 L 69.265625 -87.984375 L 87.296875 -118.234375 L 129.75 -118.234375 L 91.421875 -62.390625 Z M 133.703125 0 "/></g></g></g><g fill="#1a1a1a" fill-opacity="1"><g transform="translate(352.910642, 440.598029)"><g><path d="M 6.703125 -33.6875 L 6.703125 -60.84375 L 50.53125 -60.84375 L 50.53125 -33.6875 Z M 6.703125 -33.6875 "/></g></g></g><g fill="#1a1a1a" fill-opacity="1"><g transform="translate(410.138731, 440.598029)"><g><path d="M 79.0625 -118.234375 C 86.382812 -118.234375 92.910156 -116.539062 98.640625 -113.15625 C 104.367188 -109.78125 108.835938 -105.140625 112.046875 -99.234375 C 115.253906 -93.335938 116.859375 -86.726562 116.859375 -79.40625 L 116.859375 -77.171875 C 116.859375 -69.835938 115.253906 -63.191406 112.046875 -57.234375 C 108.835938 -51.273438 104.367188 -46.601562 98.640625 -43.21875 C 92.910156 -39.84375 86.382812 -38.15625 79.0625 -38.15625 L 50.703125 -38.15625 L 50.703125 0 L 12.71875 0 L 12.71875 -118.234375 Z M 50.703125 -65.828125 L 66.34375 -65.828125 C 70.351562 -65.828125 73.359375 -66.859375 75.359375 -68.921875 C 77.367188 -70.984375 78.375 -73.789062 78.375 -77.34375 L 78.375 -78.71875 C 78.375 -82.382812 77.367188 -85.21875 75.359375 -87.21875 C 73.359375 -89.21875 70.351562 -90.21875 66.34375 -90.21875 L 50.703125 -90.21875 Z M 50.703125 -65.828125 "/></g></g></g><g fill="#1a1a1a" fill-opacity="1"><g transform="translate(534.218867, 440.598029)"><g><path d="M 124.9375 -81.984375 C 124.9375 -74.765625 122.988281 -68.234375 119.09375 -62.390625 C 115.195312 -56.546875 109.523438 -52.25 102.078125 -49.5 L 128.375 0 L 85.75 0 L 64.796875 -43.140625 L 50.703125 -43.140625 L 50.703125 0 L 12.71875 0 L 12.71875 -118.234375 L 85.078125 -118.234375 C 93.546875 -118.234375 100.785156 -116.597656 106.796875 -113.328125 C 112.816406 -110.066406 117.34375 -105.65625 120.375 -100.09375 C 123.414062 -94.539062 124.9375 -88.503906 124.9375 -81.984375 Z M 86.265625 -80.4375 C 86.265625 -83.53125 85.234375 -86.101562 83.171875 -88.15625 C 81.117188 -90.21875 78.601562 -91.25 75.625 -91.25 L 50.703125 -91.25 L 50.703125 -69.4375 L 75.625 -69.4375 C 78.601562 -69.4375 81.117188 -70.492188 83.171875 -72.609375 C 85.234375 -74.734375 86.265625 -77.34375 86.265625 -80.4375 Z M 86.265625 -80.4375 "/></g></g></g><g fill="#1a1a1a" fill-opacity="1"><g transform="translate(667.922957, 440.598029)"><g><path d="M 71.5 -120.296875 C 91.882812 -120.296875 107.632812 -115.082031 118.75 -104.65625 C 129.863281 -94.226562 135.421875 -79.050781 135.421875 -59.125 C 135.421875 -39.1875 129.863281 -24.003906 118.75 -13.578125 C 107.632812 -3.148438 91.882812 2.0625 71.5 2.0625 C 51.101562 2.0625 35.375 -3.117188 24.3125 -13.484375 C 13.257812 -23.859375 7.734375 -39.070312 7.734375 -59.125 C 7.734375 -79.164062 13.257812 -94.367188 24.3125 -104.734375 C 35.375 -115.109375 51.101562 -120.296875 71.5 -120.296875 Z M 71.5 -91.9375 C 63.363281 -91.9375 57.175781 -89.472656 52.9375 -84.546875 C 48.695312 -79.628906 46.578125 -72.988281 46.578125 -64.625 L 46.578125 -53.625 C 46.578125 -45.257812 48.695312 -38.613281 52.9375 -33.6875 C 57.175781 -28.757812 63.363281 -26.296875 71.5 -26.296875 C 79.632812 -26.296875 85.847656 -28.757812 90.140625 -33.6875 C 94.429688 -38.613281 96.578125 -45.257812 96.578125 -53.625 L 96.578125 -64.625 C 96.578125 -72.988281 94.429688 -79.628906 90.140625 -84.546875 C 85.847656 -89.472656 79.632812 -91.9375 71.5 -91.9375 Z M 71.5 -91.9375 "/></g></g></g><g fill="#1a1a1a" fill-opacity="1"><g transform="translate(49.654482, 501.363061)"><g><path d="M 5.078125 9.828125 L 5.078125 -18.21875 C 5.078125 -19.175781 4.867188 -19.851562 4.453125 -20.25 C 4.046875 -20.644531 3.460938 -20.84375 2.703125 -20.84375 L 0.8125 -20.84375 L 0.8125 -24.234375 L 3.765625 -24.234375 C 5.179688 -24.234375 6.367188 -23.8125 7.328125 -22.96875 C 8.285156 -22.125 8.765625 -20.691406 8.765625 -18.671875 L 8.765625 9.828125 Z M 5.078125 9.828125 "/></g></g></g><g fill="#1a1a1a" fill-opacity="1"><g transform="translate(70.247238, 501.363061)"><g><path d="M 14.328125 -24.71875 C 17.160156 -24.71875 19.332031 -23.945312 20.84375 -22.40625 C 22.363281 -20.863281 23.125 -18.867188 23.125 -16.421875 L 23.125 0 L 12.484375 0 L 12.484375 -3.390625 L 19.4375 -3.390625 L 19.4375 -15.84375 C 19.4375 -17.53125 19.003906 -18.890625 18.140625 -19.921875 C 17.285156 -20.960938 15.929688 -21.484375 14.078125 -21.484375 C 11.921875 -21.484375 10.296875 -20.753906 9.203125 -19.296875 C 8.117188 -17.835938 7.4375 -15.867188 7.15625 -13.390625 L 5.734375 0 L 2.046875 0 L 3.890625 -16.78125 L 2.25 -24.234375 L 5.9375 -24.234375 L 6.625 -20.796875 L 6.75 -20.796875 C 7.21875 -21.472656 7.78125 -22.113281 8.4375 -22.71875 C 9.09375 -23.320312 9.890625 -23.804688 10.828125 -24.171875 C 11.765625 -24.535156 12.929688 -24.71875 14.328125 -24.71875 Z M 14.328125 -24.71875 "/></g></g></g><g fill="#1a1a1a" fill-opacity="1"><g transform="translate(105.209108, 501.363061)"><g><path d="M 3.0625 -8.71875 L 3.0625 -24.234375 L 6.75 -24.234375 L 6.75 -12.40625 L 4.90625 -8.71875 Z M 3.0625 -8.71875 "/></g></g></g><g fill="#1a1a1a" fill-opacity="1"><g transform="translate(123.386542, 501.363061)"><g><path d="M 12.984375 0 L 12.984375 -20.84375 L 0.40625 -20.84375 L 0.40625 -24.234375 L 20.390625 -24.234375 L 20.390625 -20.84375 L 16.65625 -20.84375 L 16.65625 0 Z M 12.984375 0 "/></g></g></g><g fill="#1a1a1a" fill-opacity="1"><g transform="translate(153.354019, 501.363061)"><g><path d="M 1.234375 0 L 1.234375 -3.390625 L 9.296875 -3.390625 L 9.296875 -18.21875 C 9.296875 -19.175781 9.097656 -19.851562 8.703125 -20.25 C 8.304688 -20.644531 7.710938 -20.84375 6.921875 -20.84375 L 2.578125 -20.84375 L 2.578125 -24.234375 L 7.984375 -24.234375 C 9.429688 -24.234375 10.625 -23.8125 11.5625 -22.96875 C 12.507812 -22.125 12.984375 -20.691406 12.984375 -18.671875 L 12.984375 0 Z M 1.234375 0 "/></g></g></g><g fill="#1a1a1a" fill-opacity="1"><g transform="translate(178.163353, 501.363061)"><g><path d="M 19.734375 0 L 19.734375 -15.765625 C 19.734375 -17.671875 19.304688 -18.992188 18.453125 -19.734375 C 17.609375 -20.472656 16.4375 -20.84375 14.9375 -20.84375 L 3.484375 -20.84375 L 3.484375 -24.234375 L 15.1875 -24.234375 C 17.96875 -24.234375 20.035156 -23.617188 21.390625 -22.390625 C 22.742188 -21.160156 23.421875 -19.195312 23.421875 -16.5 L 23.421875 0 Z M 3.484375 0 L 3.484375 -14.484375 L 7.15625 -14.484375 L 7.15625 0 Z M 3.484375 0 "/></g></g></g><g fill="#1a1a1a" fill-opacity="1"><g transform="translate(213.411786, 501.363061)"><g/></g></g><g fill="#1a1a1a" fill-opacity="1"><g transform="translate(232.003395, 501.363061)"><g><path d="M 5.375 0.203125 C 4.613281 0.203125 4.015625 -0.0078125 3.578125 -0.4375 C 3.140625 -0.863281 2.921875 -1.429688 2.921875 -2.140625 C 2.921875 -2.828125 3.140625 -3.394531 3.578125 -3.84375 C 4.015625 -4.289062 4.613281 -4.515625 5.375 -4.515625 C 6.144531 -4.515625 6.75 -4.300781 7.1875 -3.875 C 7.632812 -3.445312 7.859375 -2.878906 7.859375 -2.171875 C 7.859375 -1.472656 7.632812 -0.898438 7.1875 -0.453125 C 6.738281 -0.015625 6.132812 0.203125 5.375 0.203125 Z M 5.375 0.203125 "/></g></g></g><g fill="#1a1a1a" fill-opacity="1"><g transform="translate(251.334603, 501.363061)"><g><path d="M 19.734375 0 L 19.734375 -15.765625 C 19.734375 -17.671875 19.304688 -18.992188 18.453125 -19.734375 C 17.609375 -20.472656 16.4375 -20.84375 14.9375 -20.84375 L 3.484375 -20.84375 L 3.484375 -24.234375 L 15.1875 -24.234375 C 17.96875 -24.234375 20.035156 -23.617188 21.390625 -22.390625 C 22.742188 -21.160156 23.421875 -19.195312 23.421875 -16.5 L 23.421875 0 Z M 3.484375 0 L 3.484375 -14.484375 L 7.15625 -14.484375 L 7.15625 0 Z M 3.484375 0 "/></g></g></g><g fill="#1a1a1a" fill-opacity="1"><g transform="translate(286.583037, 501.363061)"><g><path d="M 3.0625 -8.71875 L 3.0625 -24.234375 L 6.75 -24.234375 L 6.75 -12.40625 L 4.90625 -8.71875 Z M 3.0625 -8.71875 "/></g></g></g><g fill="#1a1a1a" fill-opacity="1"><g transform="translate(304.760472, 501.363061)"><g><path d="M 1.015625 0 L 1.015625 -3.390625 L 15.515625 -3.390625 L 1.265625 -24.234375 L 5.609375 -24.234375 L 13.875 -11.578125 C 16.0625 -12.722656 17.15625 -15.222656 17.15625 -19.078125 L 17.15625 -24.234375 L 20.84375 -24.234375 L 20.84375 -19.328125 C 20.84375 -16.648438 20.375 -14.472656 19.4375 -12.796875 C 18.507812 -11.117188 17.203125 -9.867188 15.515625 -9.046875 L 19.6875 -2.703125 L 19.6875 0 Z M 1.015625 0 "/></g></g></g><g fill="#1a1a1a" fill-opacity="1"><g transform="translate(336.201704, 501.363061)"><g><path d="M 4.296875 -24.234375 L 19.4375 -24.234375 L 19.4375 -21.453125 L 11.796875 0 L 7.90625 0 L 15.59375 -20.84375 L 0.609375 -20.84375 L 0.609375 -31.109375 L 4.296875 -31.109375 Z M 4.296875 -24.234375 "/></g></g></g><g fill="#1a1a1a" fill-opacity="1"><g transform="translate(365.636992, 501.363061)"><g><path d="M 14.125 0.53125 C 11.851562 0.53125 9.890625 0.113281 8.234375 -0.71875 C 6.585938 -1.550781 5.3125 -2.894531 4.40625 -4.75 C 3.507812 -6.601562 3.0625 -9.0625 3.0625 -12.125 L 3.0625 -24.234375 L 6.75 -24.234375 L 6.75 -12.125 C 6.75 -9.195312 7.34375 -6.882812 8.53125 -5.1875 C 9.71875 -3.5 11.609375 -2.65625 14.203125 -2.65625 C 16.765625 -2.65625 18.644531 -3.5 19.84375 -5.1875 C 21.050781 -6.882812 21.65625 -9.195312 21.65625 -12.125 C 21.65625 -13.1875 21.632812 -14.25 21.59375 -15.3125 C 21.550781 -16.375 21.414062 -17.347656 21.1875 -18.234375 C 20.957031 -19.117188 20.570312 -19.832031 20.03125 -20.375 C 19.5 -20.925781 18.742188 -21.203125 17.765625 -21.203125 C 17.054688 -21.203125 16.265625 -21.078125 15.390625 -20.828125 C 14.515625 -20.585938 13.738281 -20.273438 13.0625 -19.890625 L 13.0625 -23.421875 C 13.582031 -23.660156 14.285156 -23.921875 15.171875 -24.203125 C 16.054688 -24.492188 17.054688 -24.640625 18.171875 -24.640625 C 19.867188 -24.640625 21.207031 -24.316406 22.1875 -23.671875 C 23.164062 -23.035156 23.894531 -22.144531 24.375 -21 C 24.851562 -19.851562 25.164062 -18.519531 25.3125 -17 C 25.46875 -15.488281 25.546875 -13.863281 25.546875 -12.125 C 25.546875 -8.082031 24.515625 -4.960938 22.453125 -2.765625 C 20.390625 -0.566406 17.613281 0.53125 14.125 0.53125 Z M 14.125 0.53125 "/></g></g></g><g fill="#1a1a1a" fill-opacity="1"><g transform="translate(401.786054, 501.363061)"><g><path d="M 14.578125 0.53125 C 12.390625 0.53125 10.4375 0.0546875 8.71875 -0.890625 C 7 -1.847656 5.65625 -3.273438 4.6875 -5.171875 C 3.71875 -7.078125 3.234375 -9.429688 3.234375 -12.234375 C 3.234375 -13.765625 3.363281 -15.28125 3.625 -16.78125 C 3.882812 -18.28125 4.164062 -19.632812 4.46875 -20.84375 L 1.4375 -20.84375 L 1.4375 -24.234375 L 14.375 -24.234375 C 16.882812 -24.234375 18.988281 -23.722656 20.6875 -22.703125 C 22.394531 -21.679688 23.675781 -20.25 24.53125 -18.40625 C 25.394531 -16.5625 25.828125 -14.410156 25.828125 -11.953125 C 25.828125 -9.335938 25.363281 -7.097656 24.4375 -5.234375 C 23.507812 -3.378906 22.207031 -1.953125 20.53125 -0.953125 C 18.851562 0.0351562 16.867188 0.53125 14.578125 0.53125 Z M 14.375 -2.65625 C 17.019531 -2.65625 18.957031 -3.5 20.1875 -5.1875 C 21.414062 -6.882812 22.03125 -9.164062 22.03125 -12.03125 C 22.03125 -14.269531 21.6875 -16.03125 21 -17.3125 C 20.320312 -18.59375 19.351562 -19.5 18.09375 -20.03125 C 16.84375 -20.570312 15.382812 -20.84375 13.71875 -20.84375 L 8.140625 -20.84375 C 7.984375 -20.15625 7.757812 -19.101562 7.46875 -17.6875 C 7.1875 -16.269531 7.046875 -14.578125 7.046875 -12.609375 C 7.046875 -9.390625 7.609375 -6.925781 8.734375 -5.21875 C 9.867188 -3.507812 11.75 -2.65625 14.375 -2.65625 Z M 14.375 -2.65625 "/></g></g></g><g fill="#1a1a1a" fill-opacity="1"><g transform="translate(438.221657, 501.363061)"><g><path d="M 1.234375 0 L 1.234375 -3.390625 L 9.296875 -3.390625 L 9.296875 -18.21875 C 9.296875 -19.175781 9.097656 -19.851562 8.703125 -20.25 C 8.304688 -20.644531 7.710938 -20.84375 6.921875 -20.84375 L 2.578125 -20.84375 L 2.578125 -24.234375 L 7.984375 -24.234375 C 9.429688 -24.234375 10.625 -23.8125 11.5625 -22.96875 C 12.507812 -22.125 12.984375 -20.691406 12.984375 -18.671875 L 12.984375 0 Z M 1.234375 0 "/></g></g></g><g fill="#1a1a1a" fill-opacity="1"><g transform="translate(463.031014, 501.363061)"><g><path d="M 3.0625 -8.71875 L 3.0625 -24.234375 L 6.75 -24.234375 L 6.75 -12.40625 L 4.90625 -8.71875 Z M 3.0625 -8.71875 "/></g></g></g><g fill="#1a1a1a" fill-opacity="1"><g transform="translate(481.208471, 501.363061)"><g><path d="M 2.296875 0 L 2.296875 -6.46875 C 2.296875 -9.0625 2.726562 -11.1875 3.59375 -12.84375 C 4.46875 -14.507812 5.6875 -15.753906 7.25 -16.578125 L 2.046875 -24.234375 L 6.390625 -24.234375 L 15.515625 -10.6875 C 17.503906 -11.882812 18.5 -14.328125 18.5 -18.015625 L 18.5 -24.234375 L 22.1875 -24.234375 L 22.1875 -18.265625 C 22.1875 -15.671875 21.75 -13.546875 20.875 -11.890625 C 20 -10.242188 18.785156 -8.992188 17.234375 -8.140625 L 22.765625 0 L 18.421875 0 L 8.96875 -14.046875 C 6.976562 -12.816406 5.984375 -10.375 5.984375 -6.71875 L 5.984375 0 Z M 2.296875 0 "/></g></g></g><g fill="#1a1a1a" fill-opacity="1"><g transform="translate(514.573748, 501.363061)"><g/></g></g><g fill="#1a1a1a" fill-opacity="1"><g transform="translate(533.16538, 501.363061)"><g><path d="M 5.375 0.203125 C 4.613281 0.203125 4.015625 -0.0078125 3.578125 -0.4375 C 3.140625 -0.863281 2.921875 -1.429688 2.921875 -2.140625 C 2.921875 -2.828125 3.140625 -3.394531 3.578125 -3.84375 C 4.015625 -4.289062 4.613281 -4.515625 5.375 -4.515625 C 6.144531 -4.515625 6.75 -4.300781 7.1875 -3.875 C 7.632812 -3.445312 7.859375 -2.878906 7.859375 -2.171875 C 7.859375 -1.472656 7.632812 -0.898438 7.1875 -0.453125 C 6.738281 -0.015625 6.132812 0.203125 5.375 0.203125 Z M 5.375 0.203125 "/></g></g></g><g fill="#1a1a1a" fill-opacity="1"><g transform="translate(552.496536, 501.363061)"><g><path d="M 15.234375 0 L 15.234375 -15.765625 C 15.234375 -17.671875 14.804688 -18.992188 13.953125 -19.734375 C 13.109375 -20.472656 11.9375 -20.84375 10.4375 -20.84375 L 0.609375 -20.84375 L 0.609375 -24.234375 L 10.6875 -24.234375 C 13.46875 -24.234375 15.53125 -23.617188 16.875 -22.390625 C 18.226562 -21.160156 18.90625 -19.195312 18.90625 -16.5 L 18.90625 0 Z M 15.234375 0 "/></g></g></g><g fill="#1a1a1a" fill-opacity="1"><g transform="translate(583.241805, 501.363061)"><g><path d="M 3.0625 -8.71875 L 3.0625 -24.234375 L 6.75 -24.234375 L 6.75 -12.40625 L 4.90625 -8.71875 Z M 3.0625 -8.71875 "/></g></g></g><g fill="#1a1a1a" fill-opacity="1"><g transform="translate(601.419263, 501.363061)"><g><path d="M 3.484375 0 L 3.484375 -24.234375 L 7.15625 -24.234375 L 7.15625 0 Z M 3.484375 0 "/></g></g></g><g fill="#1a1a1a" fill-opacity="1"><g transform="translate(620.620161, 501.363061)"><g><path d="M 3.484375 0 L 3.484375 -24.234375 L 7.15625 -24.234375 L 7.15625 0 Z M 3.484375 0 "/></g></g></g><g fill="#1a1a1a" fill-opacity="1"><g transform="translate(639.821014, 501.363061)"><g><path d="M 2.296875 0 L 2.296875 -6.46875 C 2.296875 -9.0625 2.726562 -11.1875 3.59375 -12.84375 C 4.46875 -14.507812 5.6875 -15.753906 7.25 -16.578125 L 2.046875 -24.234375 L 6.390625 -24.234375 L 15.515625 -10.6875 C 17.503906 -11.882812 18.5 -14.328125 18.5 -18.015625 L 18.5 -24.234375 L 22.1875 -24.234375 L 22.1875 -18.265625 C 22.1875 -15.671875 21.75 -13.546875 20.875 -11.890625 C 20 -10.242188 18.785156 -8.992188 17.234375 -8.140625 L 22.765625 0 L 18.421875 0 L 8.96875 -14.046875 C 6.976562 -12.816406 5.984375 -10.375 5.984375 -6.71875 L 5.984375 0 Z M 2.296875 0 "/></g></g></g><g fill="#1a1a1a" fill-opacity="1"><g transform="translate(673.186297, 501.363061)"><g/></g></g><g fill="#1a1a1a" fill-opacity="1"><g transform="translate(691.777929, 501.363061)"><g><path d="M 0.609375 0.40625 L 0.609375 -3.515625 C 1.671875 -3.898438 2.640625 -4.382812 3.515625 -4.96875 C 4.390625 -5.5625 5.15625 -6.238281 5.8125 -7 C 7.582031 -9.070312 8.46875 -11.40625 8.46875 -14 L 8.46875 -18.21875 C 8.46875 -19.175781 8.269531 -19.851562 7.875 -20.25 C 7.476562 -20.644531 6.882812 -20.84375 6.09375 -20.84375 L 2.171875 -20.84375 L 2.171875 -24.234375 L 7.15625 -24.234375 C 8.601562 -24.234375 9.789062 -23.8125 10.71875 -22.96875 C 11.65625 -22.125 12.125 -20.691406 12.125 -18.671875 L 12.125 -7.328125 L 12.984375 0 L 9.953125 0 L 8.796875 -6.71875 L 8.640625 -6.71875 C 7.898438 -5.375 7.050781 -4.234375 6.09375 -3.296875 C 5.144531 -2.359375 4.191406 -1.585938 3.234375 -0.984375 C 2.273438 -0.378906 1.398438 0.0820312 0.609375 0.40625 Z M 0.609375 0.40625 "/></g></g></g><g fill="#1a1a1a" fill-opacity="1"><g transform="translate(714.540357, 501.363061)"><g><path d="M 3.484375 0 L 3.484375 -24.234375 L 7.15625 -24.234375 L 7.15625 0 Z M 3.484375 0 "/></g></g></g><g fill="#1a1a1a" fill-opacity="1"><g transform="translate(733.741256, 501.363061)"><g><path d="M 4.046875 0 L 4.046875 -14.28125 C 4.046875 -15.59375 4.222656 -16.675781 4.578125 -17.53125 C 4.929688 -18.394531 5.351562 -19.078125 5.84375 -19.578125 C 6.34375 -20.085938 6.78125 -20.46875 7.15625 -20.71875 L 7.15625 -20.84375 L 1.015625 -20.84375 L 1.015625 -24.234375 L 11.25 -24.234375 L 11.25 -21.125 C 11.007812 -20.957031 10.601562 -20.640625 10.03125 -20.171875 C 9.457031 -19.710938 8.929688 -19.046875 8.453125 -18.171875 C 7.972656 -17.296875 7.734375 -16.148438 7.734375 -14.734375 L 7.734375 0 Z M 4.046875 0 "/></g></g></g><g fill="#1a1a1a" fill-opacity="1"><g transform="translate(754.57966, 501.363061)"><g><path d="M 3.0625 -8.71875 L 3.0625 -24.234375 L 6.75 -24.234375 L 6.75 -12.40625 L 4.90625 -8.71875 Z M 3.0625 -8.71875 "/></g></g></g><g fill="#1a1a1a" fill-opacity="1"><g transform="translate(772.757072, 501.363061)"><g><path d="M 14.328125 -24.71875 C 17.160156 -24.71875 19.332031 -23.945312 20.84375 -22.40625 C 22.363281 -20.863281 23.125 -18.867188 23.125 -16.421875 L 23.125 0 L 12.484375 0 L 12.484375 -3.390625 L 19.4375 -3.390625 L 19.4375 -15.84375 C 19.4375 -17.53125 19.003906 -18.890625 18.140625 -19.921875 C 17.285156 -20.960938 15.929688 -21.484375 14.078125 -21.484375 C 11.921875 -21.484375 10.296875 -20.753906 9.203125 -19.296875 C 8.117188 -17.835938 7.4375 -15.867188 7.15625 -13.390625 L 5.734375 0 L 2.046875 0 L 3.890625 -16.78125 L 2.25 -24.234375 L 5.9375 -24.234375 L 6.625 -20.796875 L 6.75 -20.796875 C 7.21875 -21.472656 7.78125 -22.113281 8.4375 -22.71875 C 9.09375 -23.320312 9.890625 -23.804688 10.828125 -24.171875 C 11.765625 -24.535156 12.929688 -24.71875 14.328125 -24.71875 Z M 14.328125 -24.71875 "/></g></g></g><g clip-path="url(#f9ff01e098)"><path fill="#242424" d="M 249.765625 172.089844 L 104.746094 287.777344 L 113.929688 287.777344 L 249.765625 179.347656 L 339.085938 250.597656 L 343.679688 247.042969 Z M 249.765625 131.5 L 54.085938 287.777344 L 95.710938 287.777344 L 249.765625 164.828125 L 348.269531 243.484375 L 369.15625 226.894531 Z M 249.765625 131.5 " fill-opacity="1" fill-rule="evenodd"/></g><path fill="#242424" d="M 252.429688 225.5625 L 264.429688 225.5625 L 264.429688 237.5625 L 252.429688 237.5625 Z M 252.429688 207.933594 L 264.429688 207.933594 L 264.429688 219.933594 L 252.429688 219.933594 Z M 235.101562 225.5625 L 247.097656 225.5625 L 247.097656 237.5625 L 235.101562 237.5625 Z M 235.101562 207.933594 L 247.097656 207.933594 L 247.097656 219.933594 L 235.101562 219.933594 Z M 235.101562 207.933594 " fill-opacity="1" fill-rule="evenodd"/><path fill="#242424" d="M 255.097656 131.5 L 442.777344 136.242188 L 266.207031 140.535156 Z M 255.097656 131.5 " fill-opacity="1" fill-rule="evenodd"/><path fill="#242424" d="M 271.984375 144.535156 L 426.628906 149.128906 L 283.09375 153.570312 Z M 271.984375 144.535156 " fill-opacity="1" fill-rule="evenodd"/><path fill="#242424" d="M 288.871094 157.421875 L 413.152344 162.164062 L 300.128906 166.460938 Z M 288.871094 157.421875 " fill-opacity="1" fill-rule="evenodd"/><path fill="#242424" d="M 305.90625 170.457031 L 395.820312 175.050781 L 317.015625 179.496094 Z M 305.90625 170.457031 " fill-opacity="1" fill-rule="evenodd"/><path fill="#242424" d="M 322.792969 183.347656 L 381.453125 188.085938 L 333.902344 192.382812 Z M 322.792969 183.347656 " fill-opacity="1" fill-rule="evenodd"/><path fill="#242424" d="M 339.679688 196.382812 L 364.710938 200.972656 L 350.789062 205.417969 Z M 339.679688 196.382812 " fill-opacity="1" fill-rule="evenodd"/><path fill="#f97316" d="M 502.621094 136.683594 L 313.460938 287.777344 L 322.644531 287.777344 L 507.359375 140.242188 Z M 476.699219 116.984375 L 262.800781 287.777344 L 304.425781 287.777344 L 498.027344 133.128906 Z M 476.699219 116.984375 " fill-opacity="1" fill-rule="evenodd"/><path fill="#f97316" d="M 392.414062 129.871094 C 392.414062 129.871094 413.003906 142.164062 416.410156 139.203125 C 419.816406 136.242188 426.777344 125.425781 427.074219 124.242188 C 427.222656 123.058594 426.335938 110.464844 434.332031 100.246094 C 442.332031 90.171875 448.554688 88.691406 454.628906 91.359375 C 460.699219 94.023438 473.882812 102.46875 473.882812 102.46875 L 500.398438 63.953125 L 478.625 44.550781 C 478.625 44.550781 470.03125 38.625 479.511719 30.921875 C 488.84375 23.21875 506.917969 14.628906 534.914062 12.996094 C 534.914062 12.996094 546.613281 12.847656 549.726562 10.925781 C 552.835938 8.851562 554.613281 7.21875 553.132812 5.738281 C 551.503906 4.257812 505.730469 0.257812 476.402344 6.183594 C 447.074219 12.109375 425.742188 34.476562 411.078125 62.472656 C 411.078125 62.472656 415.371094 74.324219 407.964844 84.097656 C 400.410156 94.023438 391.96875 96.394531 388.710938 98.171875 C 385.300781 99.949219 377.894531 114.316406 377.894531 114.316406 C 377.894531 114.316406 379.820312 122.167969 392.414062 129.871094 Z M 392.414062 129.871094 " fill-opacity="1" fill-rule="evenodd"/><path fill="#f97316" d="M 506.324219 68.992188 C 538.617188 93.429688 567.351562 121.429688 599.644531 145.871094 C 650.601562 184.382812 705.113281 219.488281 756.070312 258.003906 C 760.214844 261.113281 760.957031 267.039062 757.847656 271.1875 L 741.402344 292.960938 C 738.292969 297.109375 732.367188 297.847656 728.222656 294.738281 C 676.671875 255.78125 625.269531 216.824219 573.722656 177.863281 C 542.023438 153.867188 510.175781 129.722656 478.476562 105.726562 Z M 506.324219 68.992188 " fill-opacity="1" fill-rule="evenodd"/><path fill="#f97316" d="M 522.027344 221.859375 L 544.097656 221.859375 L 544.097656 243.929688 L 522.027344 243.929688 Z M 522.027344 189.269531 L 544.097656 189.269531 L 544.097656 211.34375 L 522.027344 211.34375 Z M 489.882812 221.859375 L 511.953125 221.859375 L 511.953125 243.929688 L 489.882812 243.929688 Z M 489.882812 189.269531 L 511.953125 189.269531 L 511.953125 211.34375 L 489.882812 211.34375 Z M 489.882812 189.269531 " fill-opacity="1" fill-rule="evenodd"/><g clip-path="url(#81d23f6dc4)"><path fill="#f97316" d="M 537.726562 85.582031 L 794.730469 95.355469 L 563.648438 104.542969 Z M 537.726562 85.582031 " fill-opacity="1" fill-rule="evenodd"/></g><path fill="#f97316" d="M 576.832031 112.835938 L 793.546875 122.613281 L 602.753906 131.796875 Z M 576.832031 112.835938 " fill-opacity="1" fill-rule="evenodd"/><path fill="#f97316" d="M 615.9375 140.09375 L 792.359375 149.867188 L 641.863281 159.050781 Z M 615.9375 140.09375 " fill-opacity="1" fill-rule="evenodd"/><path fill="#f97316" d="M 655.046875 167.347656 L 791.324219 177.125 L 680.96875 186.308594 Z M 655.046875 167.347656 " fill-opacity="1" fill-rule="evenodd"/><path fill="#f97316" d="M 694.152344 194.605469 L 793.101562 204.378906 L 720.074219 213.5625 Z M 694.152344 194.605469 " fill-opacity="1" fill-rule="evenodd"/><path fill="#f97316" d="M 733.257812 221.859375 L 787.175781 231.636719 L 759.179688 240.820312 Z M 733.257812 221.859375 " fill-opacity="1" fill-rule="evenodd"/></svg>